<svg width="100" height="100" viewBox="0 0 100 100" fill="none" xmlns="http://www.w3.org/2000/svg">
<path d="M28.113 21.1268C28.355 21.2212 28.7043 21.1891 28.9234 21.3477C28.9265 21.3499 28.9296 21.3521 28.9326 21.3544C29.0221 21.4191 29.1082 21.499 29.2118 21.5961C29.2251 21.6085 29.2386 21.6214 29.2524 21.6343C29.3755 21.7495 29.5263 21.8894 29.7351 22.0621C30.4339 22.6409 31.1249 22.6969 31.3463 22.7166C31.785 22.7547 32.2029 22.9267 32.7649 23.1756C32.8163 23.1984 32.8687 23.2223 32.9226 23.2464C32.9663 23.2659 32.9586 23.3782 32.9051 23.4972C32.8516 23.6163 32.7731 23.6971 32.7301 23.6778C32.6779 23.6545 32.627 23.6319 32.5774 23.6099C32.5772 23.6098 32.577 23.6097 32.5768 23.6096C32.018 23.3622 31.614 23.1962 31.1904 23.1606C30.9666 23.1414 30.2668 23.0863 29.5608 22.4972C29.3526 22.3238 29.2019 22.1838 29.0799 22.0685C29.0665 22.0559 29.0535 22.0435 29.0408 22.0315C29.0405 22.0312 29.0402 22.0309 29.0399 22.0306C28.9373 21.9335 28.8558 21.8571 28.7714 21.7956C28.7695 21.7944 28.7677 21.7932 28.7659 21.792C28.5472 21.6327 28.207 21.6694 27.9754 21.5787C27.9312 21.5612 27.9258 21.4458 27.9635 21.321C28.0012 21.1961 28.0681 21.1093 28.113 21.1268ZM44.4377 28.5163C44.7504 28.5559 45.0042 28.8016 45.185 29.0649C45.3675 29.3302 45.4825 29.6227 45.5226 29.7751C45.5619 29.924 45.6493 30.0408 45.7636 30.1692C45.7898 30.1987 45.8175 30.2288 45.846 30.2599C45.9401 30.3626 46.0444 30.4775 46.1421 30.6211C46.5007 31.1488 46.7843 31.4365 46.9994 31.6315C47.0436 31.6716 47.0855 31.7082 47.1246 31.7426C47.1246 31.7426 47.1247 31.7427 47.1247 31.7428C47.2724 31.8725 47.3818 31.9699 47.438 32.1034C47.538 32.3409 47.6137 32.5399 47.6577 32.824C47.7182 33.2153 48.0523 33.5284 48.372 33.6412C48.3895 33.6474 48.4077 33.6534 48.4259 33.6598C48.658 33.741 48.9442 33.8423 49.2936 34.0718C49.584 34.2628 49.7737 34.4868 49.9266 34.6981C49.9704 34.7587 50.0106 34.8178 50.0493 34.8745C50.1472 35.0175 50.2339 35.1457 50.3365 35.2487C50.9727 35.8883 51.2356 36.3468 51.3421 36.6798C51.4238 36.9365 51.412 37.125 51.4034 37.2609C51.4008 37.3019 51.3981 37.3384 51.3986 37.3703C51.4034 37.6547 51.4701 37.8645 51.5491 38.1173C51.5665 38.1733 51.5846 38.2317 51.6026 38.2933C51.663 38.4991 51.7646 38.608 51.8623 38.6798C51.905 38.7113 51.9467 38.7358 51.9863 38.7588C51.9871 38.7592 51.9878 38.7596 51.9886 38.7599C51.9942 38.7632 51.9995 38.7665 52.0049 38.7696C52.009 38.772 52.0134 38.7741 52.0175 38.7765C52.0204 38.7764 52.0226 38.7768 52.0244 38.7768C52.0258 38.7769 52.0268 38.777 52.0275 38.7771C52.0277 38.777 52.0279 38.777 52.0281 38.7769C52.0403 38.778 52.0475 38.7815 52.049 38.7822C52.0516 38.7834 52.0535 38.7849 52.0545 38.7855C52.06 38.7891 52.0658 38.7946 52.0695 38.7984C52.079 38.8081 52.0949 38.8255 52.1186 38.853C52.1432 38.8739 52.1709 38.891 52.2056 38.9122C52.2078 38.9135 52.2101 38.9148 52.2123 38.9161C52.2462 38.9368 52.2856 38.9612 52.3314 38.9948C52.3731 39.0253 52.3264 39.1177 52.227 39.2013C52.1276 39.2848 52.0134 39.3279 51.9719 39.2977C51.929 39.2664 51.8921 39.2438 51.8583 39.2233C51.8561 39.222 51.8539 39.2208 51.8517 39.2195C51.8165 39.1981 51.7833 39.1777 51.7531 39.1516C51.7429 39.1429 51.733 39.1334 51.7241 39.1244C51.7057 39.1099 51.682 39.0955 51.6532 39.0786C51.6474 39.0753 51.6416 39.0716 51.6355 39.0681C51.5961 39.0453 51.5503 39.0189 51.504 38.985C51.3958 38.9056 51.285 38.7853 51.2202 38.5625C51.2031 38.504 51.1858 38.448 51.1688 38.3932C51.0904 38.1409 51.0193 37.917 51.015 37.6163C51.0144 37.5751 51.0174 37.5326 51.0204 37.4873C51.0291 37.3531 51.0396 37.1926 50.965 36.9566C50.8647 36.641 50.6124 36.1945 49.9841 35.5634C49.8772 35.4561 49.7855 35.3202 49.6867 35.1757C49.6491 35.1206 49.61 35.0644 49.5692 35.0079C49.42 34.8014 49.2376 34.586 48.9589 34.4034C48.6193 34.1811 48.3425 34.0835 48.1126 34.0038C48.1046 34.0011 48.0965 33.9985 48.0885 33.9958C48.0786 33.9924 48.0688 33.989 48.0591 33.9856C47.7201 33.8669 47.3644 33.5398 47.2992 33.1094C47.2583 32.8391 47.187 32.6494 47.0889 32.4147C47.0405 32.2992 46.9476 32.2166 46.8043 32.0903C46.7641 32.0549 46.7201 32.0158 46.6718 31.9719C46.4545 31.775 46.1688 31.4855 45.81 30.9556C45.7164 30.8175 45.6176 30.7085 45.5248 30.6071C45.496 30.5756 45.4678 30.5446 45.4405 30.5138C45.3267 30.3858 45.2282 30.2586 45.1837 30.0873C45.1471 29.9464 45.0382 29.6642 44.8626 29.408C44.6861 29.1501 44.4494 28.9296 44.1762 28.896C44.1478 28.8924 44.1194 28.8887 44.0909 28.885C43.8455 28.8537 43.5956 28.8238 43.3192 28.8927C41.8208 29.5199 41.1393 28.2791 40.4714 27.6842C40.4628 27.6764 40.4541 27.6686 40.4455 27.6608C39.6844 26.9771 39.0608 26.5761 38.8498 26.4397C38.8399 26.4333 38.8309 26.4276 38.8228 26.4224C38.8156 26.4177 38.809 26.4137 38.8032 26.41C38.7172 26.3541 38.6323 26.318 38.5433 26.2805C38.5385 26.2784 38.5336 26.2764 38.5288 26.2744C38.4347 26.2347 38.3368 26.1923 38.2333 26.1235C37.8484 25.8677 37.5169 25.6872 37.2275 25.5375C37.1739 25.5098 37.1219 25.4828 37.0709 25.4569C37.0707 25.4568 37.0706 25.4567 37.0704 25.4566C36.8467 25.343 36.6472 25.2444 36.4654 25.1388C36.1337 24.9463 35.893 24.846 35.7016 24.7765C35.6415 24.7547 35.5858 24.7358 35.533 24.7181C35.419 24.6798 35.3193 24.6469 35.2225 24.6022C35.0403 24.518 34.8622 24.4605 34.687 24.4047C34.6713 24.3997 34.6559 24.3946 34.6403 24.3896C34.4506 24.3294 34.2636 24.2694 34.0799 24.1783C34.0373 24.1572 34.0493 24.0446 34.1066 23.9273C34.1638 23.8101 34.2453 23.7324 34.2885 23.7538C34.469 23.8433 34.6532 23.9031 34.845 23.9643C34.8608 23.9693 34.8768 23.9742 34.8927 23.9793C35.0695 24.0358 35.2524 24.0959 35.44 24.1828C35.5344 24.2265 35.6295 24.2581 35.7425 24.2962C35.7964 24.3143 35.8544 24.3339 35.9184 24.3572C36.1147 24.4288 36.3615 24.5317 36.7001 24.7282C36.8818 24.8337 37.0806 24.9325 37.3067 25.0474C37.3585 25.0738 37.4118 25.101 37.4667 25.1294C37.7599 25.2812 38.0966 25.465 38.4879 25.7249C38.5867 25.7906 38.6803 25.8315 38.7748 25.8715C38.7801 25.8738 38.7854 25.8761 38.7907 25.8784C38.8797 25.9161 38.9704 25.9545 39.0622 26.0142C39.0744 26.0222 39.09 26.0325 39.1089 26.0447C39.3225 26.1827 39.9554 26.5895 40.7275 27.2818C40.7299 27.2841 40.7322 27.2863 40.7346 27.2885C41.2513 27.753 41.534 28.0221 41.8381 28.1107C42.078 28.181 42.2291 28.2709 42.3477 28.3512C42.3704 28.3665 42.3918 28.3811 42.412 28.3952C42.4993 28.4561 42.5682 28.5044 42.6541 28.5318C42.914 28.615 43.1577 28.6054 43.5229 28.515C43.8326 28.4386 44.1093 28.4729 44.3517 28.505C44.3521 28.505 44.3525 28.5051 44.3528 28.5051C44.3816 28.5089 44.4098 28.5128 44.4377 28.5163ZM53.0139 39.3803C53.0408 39.4229 52.9775 39.52 52.8725 39.5973C52.7674 39.6746 52.6605 39.7031 52.6338 39.6608C52.5704 39.56 52.5067 39.4593 52.4428 39.3587C52.4161 39.3166 52.4787 39.2192 52.5831 39.1411C52.6876 39.063 52.7945 39.0339 52.8216 39.0764C52.8859 39.1775 52.9501 39.2788 53.0139 39.3803ZM45.7985 26.5866C45.8549 26.5997 45.8404 26.696 45.7663 26.8008C45.6923 26.9056 45.5869 26.9797 45.5309 26.9669C45.5013 26.96 45.4511 26.9506 45.3836 26.9382C44.8951 26.8459 43.5174 26.6112 42.3821 26.0154C42.2863 25.9648 42.1993 25.9211 42.1164 25.8798C41.7604 25.7034 41.3134 25.7888 40.7165 25.3536C38.2183 23.5355 35.738 21.4588 32.688 20.6286C31.8133 20.3912 30.9742 20.0909 30.1295 19.7927C29.4293 19.5383 28.1841 18.9144 27.8734 18.8081C27.8253 18.7907 27.8147 18.6747 27.8496 18.549C27.8845 18.4233 27.9524 18.3358 28.0011 18.3533C28.3132 18.4598 29.5697 19.0866 30.2755 19.3427C31.1287 19.6436 31.9755 19.9471 32.8582 20.1877C35.9307 21.0245 38.749 22.631 41.3186 24.4989C41.9247 24.9404 42.0273 25.3144 42.3839 25.4915C42.4678 25.5334 42.5561 25.5776 42.6537 25.6293C43.7828 26.2236 45.1474 26.4606 45.6443 26.556C45.7143 26.5692 45.767 26.5792 45.7985 26.5866ZM47.4994 28.359C47.9546 28.7308 48.5143 29.3536 48.9893 29.9069C49.2214 30.1767 49.4338 30.4293 49.6099 30.626C49.8828 30.931 49.9779 31.1952 50.0708 31.4568C50.0719 31.4596 50.0729 31.4624 50.0739 31.4652C50.1666 31.7268 50.2592 31.9868 50.5246 32.3014C50.7923 32.6188 51.2335 32.9933 51.6739 33.3795C51.6742 33.3798 51.6745 33.3801 51.6748 33.3805C52.1124 33.7635 52.7346 34.0064 52.9934 34.3454C53.8937 35.5266 54.1916 36.4511 54.2691 36.9679C54.4017 37.8711 55.344 38.3015 55.3616 39.2943C55.3122 39.4398 54.9324 39.5266 54.9202 39.333C54.9191 39.3265 54.918 39.32 54.9169 39.3135C54.9057 39.2517 54.8945 39.1987 54.868 39.1317C54.8205 39.0413 54.7769 38.98 54.737 38.9241C54.6343 38.776 53.957 37.7228 53.8804 37.2202C53.807 36.7306 53.0773 36.1807 52.1877 35.0118C51.9387 34.6852 51.7655 34.084 51.3271 33.7006C51.3259 33.6995 51.3248 33.6985 51.3236 33.6974C50.8892 33.3171 50.4465 32.9419 50.1765 32.6216C49.9036 32.2979 49.8083 32.0273 49.7156 31.7636C49.7148 31.761 49.7139 31.7584 49.713 31.7558C49.6221 31.498 49.5324 31.2474 49.2717 30.9559C49.0932 30.7563 48.8796 30.5031 48.6479 30.2336C48.1788 29.6867 47.6322 29.0767 47.1845 28.7112C47.1442 28.6781 47.1819 28.5723 47.2687 28.4749C47.3555 28.3775 47.4587 28.3257 47.4994 28.359ZM49.5096 26.2075C51.1382 27.0017 52.2844 28.3694 53.0197 29.9893C53.3056 30.3265 53.6908 30.8084 54.0666 31.295C54.0707 31.3006 54.0748 31.3062 54.079 31.3118C54.4509 31.7929 54.813 32.2765 55.0761 32.6202C56.012 33.8444 56.5214 34.6515 56.6105 35.1835C56.6922 35.6803 56.7642 35.778 56.8728 35.9244C56.8756 35.9285 56.8784 35.9326 56.8813 35.9367C56.8818 35.9367 56.8823 35.9367 56.8828 35.9368C56.8914 35.9381 56.8973 35.9402 56.9001 35.9414C56.9059 35.944 56.9095 35.9469 56.9109 35.9479C56.914 35.9504 56.916 35.953 56.9168 35.9539C56.9199 35.9574 56.9231 35.9618 56.925 35.9647C56.9426 35.9921 56.9921 36.0818 57.0247 36.1579C57.058 36.2358 57.0725 36.2983 57.0867 36.3648C57.0881 36.3716 57.0895 36.3783 57.0909 36.3851C57.1035 36.4451 57.1173 36.5105 57.1448 36.5987C57.1615 36.6524 57.0876 36.7538 56.9798 36.8253C56.8719 36.8966 56.7713 36.9112 56.7547 36.8578C56.726 36.7655 56.7116 36.6963 56.6991 36.6362C56.6977 36.6295 56.6964 36.6228 56.695 36.6161C56.6816 36.5527 56.6684 36.4982 56.6392 36.4293C56.588 36.3364 56.5418 36.2733 56.4994 36.2158C56.3878 36.065 56.3055 35.9523 56.2214 35.4343C56.1381 34.9317 55.649 34.1476 54.7136 32.9231C54.4519 32.581 54.0919 32.0999 53.7229 31.6223C53.7186 31.6167 53.7142 31.6111 53.7098 31.6055C53.3366 31.1218 52.9553 30.6434 52.6721 30.3092C51.5658 29.0031 50.2252 27.9848 49.195 26.56C48.949 26.3573 48.7291 26.1669 48.5243 25.9916C47.9216 25.4762 47.4475 25.089 46.8196 24.9362C46.6819 24.9029 46.3938 24.7304 45.9795 24.4799C45.8582 24.4066 45.7254 24.3259 45.5814 24.2397C45.2285 24.0284 44.8078 23.7817 44.3248 23.5204C44.2236 23.4657 44.1318 23.4182 44.0442 23.3733C43.6688 23.182 43.3747 23.0315 42.7335 22.5642C41.9479 21.986 40.6347 20.9969 39.921 20.4711C39.5654 20.2056 39.3698 20.0449 39.234 19.9264C39.1962 19.8935 39.1633 19.8638 39.1329 19.8369C39.0535 19.7665 38.9915 19.7122 38.9047 19.6504C38.2791 19.2075 37.779 19.0005 36.9478 18.7088C36.8957 18.6905 36.8978 18.5798 36.9524 18.4614C37.0071 18.343 37.0942 18.2617 37.1469 18.2801C37.9874 18.576 38.5001 18.7885 39.1409 19.2413C39.2324 19.3063 39.2994 19.3651 39.3811 19.4373C39.4114 19.4641 39.4436 19.4928 39.4799 19.5242C39.6149 19.6416 39.8105 19.802 40.1679 20.0683C40.8878 20.5977 42.2123 21.5938 43.0028 22.1753C43.6437 22.6422 43.9341 22.7919 44.3112 22.9846C44.3997 23.0301 44.4929 23.0781 44.5959 23.1339C45.0835 23.3983 45.5089 23.648 45.8648 23.8615C46.0098 23.9484 46.1434 24.0296 46.2652 24.1034C46.6911 24.3615 46.9648 24.5242 47.0835 24.5531C47.7373 24.7139 48.2359 25.1217 48.8487 25.6464C49.0527 25.8213 49.2696 26.0096 49.5096 26.2075ZM34.1259 17.2908C34.1793 17.306 34.1841 17.4172 34.1369 17.5388C34.0897 17.6603 34.0087 17.7467 33.956 17.7318C33.6774 17.6532 33.475 17.6024 33.3167 17.5633C33.0232 17.4911 32.8821 17.4583 32.6821 17.3771C32.1653 17.1678 31.6606 16.9801 31.2036 16.8186C30.4438 16.5498 29.8166 16.353 29.491 16.23C29.44 16.2107 29.429 16.0937 29.4665 15.9687C29.504 15.8439 29.5763 15.7585 29.628 15.7779C29.9548 15.9011 30.5841 16.0987 31.3494 16.3692C31.8119 16.5325 32.3241 16.7221 32.8498 16.9348C33.0459 17.0144 33.1803 17.0462 33.4702 17.1178C33.63 17.1574 33.837 17.209 34.1259 17.2908ZM54.144 41.7887C54.3309 42.0957 54.6931 42.3882 54.8222 42.7304C54.824 42.7351 54.8258 42.7399 54.8276 42.7447C54.8804 42.8845 54.9218 43.0349 54.9711 43.2169C54.9774 43.2401 54.9837 43.2639 54.9903 43.2881C55.0487 43.5037 55.1217 43.7676 55.2356 44.1158C55.6169 45.2832 56.278 45.9735 56.4856 46.1907C56.9004 46.6253 57.224 47.1628 57.6538 47.9031C57.6931 47.9709 57.7329 48.0406 57.7741 48.1119C57.8075 48.1696 57.7433 48.2697 57.6307 48.3355C57.5179 48.4013 57.3997 48.4082 57.3665 48.3508C57.3263 48.2813 57.2872 48.2137 57.249 48.1478C57.2488 48.1475 57.2486 48.1472 57.2484 48.1469C56.8181 47.4059 56.5031 46.8831 56.0998 46.4611C55.8886 46.2404 55.2148 45.5373 54.8275 44.3471C54.7133 43.9969 54.6397 43.7317 54.5816 43.5159C54.5752 43.4923 54.5691 43.4691 54.5631 43.4467C54.5629 43.4462 54.5628 43.4456 54.5627 43.4451C54.5135 43.2628 54.4744 43.1193 54.4244 42.9863C54.4232 42.9835 54.4221 42.9808 54.4209 42.978C54.2914 42.6337 53.9341 42.3514 53.7541 42.0554C53.7197 41.9988 53.7791 41.893 53.8866 41.8192C53.9941 41.7454 54.1093 41.7319 54.144 41.7887ZM66.6827 62.9618C66.9697 63.2364 67.1146 63.6862 67.1838 64.1055C67.2546 64.5305 67.2495 64.9354 67.2277 65.132C67.2066 65.3248 67.2438 65.5135 67.3047 65.7406C67.3185 65.7923 67.3335 65.8457 67.3489 65.9009C67.3998 66.0832 67.4557 66.2857 67.4938 66.5147C67.6324 67.353 67.7984 67.885 67.9292 68.2503C67.9562 68.3258 67.9823 68.3956 68.007 68.4625C68.0071 68.4626 68.0071 68.4627 68.0072 68.4628C68.1002 68.7138 68.1685 68.9004 68.1716 69.0902C68.1775 69.4292 68.1723 69.6996 68.1082 70.0574C68.0195 70.5492 68.2201 71.1271 68.4866 71.4801C68.5012 71.4992 68.5164 71.5187 68.5316 71.5384C68.7248 71.7922 68.9598 72.0966 69.209 72.5964C69.4165 73.0138 69.5127 73.393 69.5796 73.7369C69.599 73.8367 69.6154 73.9321 69.6313 74.0234C69.6715 74.2539 69.7063 74.4588 69.7653 74.644C70.1336 75.8033 70.2103 76.5018 70.1867 76.9582C70.1673 77.307 70.0847 77.516 70.0261 77.6713C70.0082 77.7177 69.992 77.7587 69.9806 77.7964C69.8787 78.1327 69.8621 78.4174 69.8407 78.7603C69.8363 78.8381 69.8315 78.9187 69.8254 79.0028C69.805 79.2839 69.8592 79.4751 69.9237 79.6202C69.9519 79.6836 69.9816 79.7382 70.01 79.7895C70.0106 79.7905 70.0112 79.7914 70.0118 79.7923C70.0157 79.7995 70.0194 79.8066 70.0233 79.8137C70.0262 79.819 70.0296 79.8242 70.0325 79.8295C70.0353 79.8313 70.0372 79.833 70.0388 79.8342C70.0401 79.8352 70.0411 79.8359 70.0417 79.8364C70.0419 79.8365 70.0421 79.8366 70.0423 79.8366C70.0534 79.8454 70.0589 79.8546 70.06 79.8563C70.0621 79.8594 70.0632 79.8624 70.064 79.8638C70.0678 79.8716 70.0712 79.8819 70.0733 79.8888C70.0786 79.9065 70.087 79.9374 70.099 79.9853C70.1142 80.026 70.1338 80.064 70.1585 80.1113C70.1601 80.1143 70.1617 80.1173 70.1633 80.1203C70.1873 80.1665 70.2151 80.2205 70.2454 80.289C70.2729 80.3514 70.1936 80.4293 70.0681 80.4632C69.9426 80.4971 69.8188 80.4746 69.7914 80.4127C69.763 80.3486 69.7368 80.2984 69.7128 80.2525C69.7112 80.2496 69.7096 80.2467 69.7081 80.2438C69.6831 80.1959 69.6595 80.1504 69.6408 80.0999C69.6346 80.083 69.6288 80.0654 69.6239 80.0488C69.6119 80.0197 69.595 79.9872 69.5741 79.9483C69.5699 79.9404 69.5659 79.9328 69.5615 79.9249C69.5333 79.874 69.5003 79.8146 69.4697 79.7461C69.3982 79.5855 69.3396 79.3749 69.362 79.07C69.3678 78.9901 69.3724 78.9125 69.3768 78.8364C69.3987 78.4952 69.416 78.1895 69.5242 77.8335C69.5391 77.7847 69.5578 77.7367 69.5775 77.6854C69.6352 77.5306 69.7069 77.3568 69.7246 77.0344C69.7473 76.6008 69.6758 75.9221 69.311 74.774C69.2493 74.5805 69.2125 74.3628 69.1719 74.1293C69.1564 74.0401 69.1398 73.9487 69.1216 73.8554C69.0563 73.5184 68.9634 73.1525 68.7637 72.7515C68.5204 72.2636 68.293 71.97 68.101 71.7184C68.0943 71.7098 68.0876 71.7012 68.0808 71.6926C68.0726 71.6819 68.0644 71.6713 68.0563 71.6607C67.7727 71.2851 67.5563 70.6752 67.6545 70.1332C67.7165 69.7939 67.7216 69.5345 67.7161 69.1988C67.7135 69.0342 67.6553 68.8752 67.5647 68.6302C67.5392 68.5612 67.5118 68.4861 67.4822 68.4033C67.3496 68.0331 67.1815 67.495 67.0423 66.6507C67.0057 66.4297 66.9525 66.2367 66.9021 66.0562C66.8865 66.0001 66.8713 65.9449 66.8568 65.8907C66.7959 65.6633 66.7519 65.4545 66.7764 65.2323C66.7967 65.0502 66.803 64.6592 66.7346 64.2474C66.6669 63.8356 66.5275 63.4233 66.2759 63.1831C66.2497 63.1582 66.2237 63.1329 66.1975 63.1077C65.9716 62.8899 65.7419 62.6727 65.4454 62.5404C63.7312 62.0915 63.5672 60.193 63.1667 59.0281C63.1615 59.0128 63.1563 58.9974 63.1512 58.9824C62.6966 57.6487 62.2615 56.7194 62.1139 56.4032C62.107 56.3884 62.1007 56.375 62.095 56.3629C62.09 56.3521 62.0852 56.3425 62.0812 56.3339C62.0213 56.2047 61.9536 56.0967 61.8832 55.9849C61.8793 55.9788 61.8754 55.9727 61.8716 55.9666C61.797 55.8482 61.7197 55.7235 61.6487 55.5665C61.3844 54.9823 61.1399 54.5186 60.9236 54.1225C60.8835 54.049 60.8447 53.9775 60.8063 53.908C60.8062 53.9078 60.8061 53.9076 60.806 53.9073C60.6377 53.6024 60.486 53.3313 60.3563 53.0705C60.1191 52.5935 59.9288 52.2854 59.7726 52.0503C59.7235 51.9765 59.6774 51.9091 59.6338 51.846C59.5395 51.7093 59.4567 51.5901 59.3825 51.4614C59.2427 51.2194 59.0943 51.0069 58.9477 50.7979C58.9347 50.7793 58.9219 50.7606 58.9088 50.742C58.7497 50.5152 58.5943 50.2923 58.4569 50.0406C58.425 49.9823 58.4918 49.8831 58.6058 49.8195C58.7197 49.7559 58.8381 49.752 58.8702 49.8106C59.0044 50.0563 59.1564 50.275 59.316 50.5028C59.3292 50.5216 59.3426 50.5403 59.3559 50.5592C59.5027 50.7687 59.6538 50.9866 59.7968 51.2343C59.8687 51.359 59.9472 51.4721 60.04 51.6068C60.0843 51.671 60.132 51.7403 60.184 51.8185C60.3433 52.0584 60.5371 52.3719 60.7778 52.8557C60.9065 53.1146 61.0566 53.3836 61.2255 53.6898C61.2643 53.7601 61.3041 53.8324 61.3449 53.9071C61.5626 54.3061 61.8093 54.7742 62.0763 55.3643C62.1437 55.5133 62.217 55.6321 62.2916 55.7506C62.2957 55.7573 62.2998 55.7639 62.3039 55.7706C62.3741 55.8819 62.446 55.9961 62.5096 56.1332C62.5181 56.1515 62.5287 56.175 62.5419 56.2031C62.6903 56.5212 63.1294 57.4582 63.5879 58.8022C63.5892 58.8064 63.5906 58.8106 63.5919 58.8148C63.9011 59.722 64.0628 60.2256 64.3242 60.5606C64.5292 60.8229 64.6392 61.036 64.7215 61.2136C64.7372 61.2475 64.752 61.2795 64.7659 61.3102C64.8257 61.4428 64.8725 61.5466 64.945 61.6423C65.1646 61.9323 65.4059 62.107 65.797 62.2821C66.1288 62.431 66.3815 62.67 66.604 62.8859C66.6043 62.8862 66.6047 62.8865 66.605 62.8869C66.6313 62.9123 66.6571 62.9374 66.6827 62.9618ZM70.7371 81.1721C70.7458 81.2392 70.6489 81.3122 70.5206 81.3356C70.3923 81.3589 70.2811 81.324 70.2724 81.2573C70.252 81.0991 70.2301 80.9352 70.2098 80.7819C70.201 80.7166 70.2974 80.6435 70.4254 80.619C70.5536 80.5946 70.665 80.6283 70.6739 80.6941C70.6944 80.8481 70.7165 81.0131 70.7371 81.1721ZM68.7842 61.868C68.8329 61.9226 68.7793 62.0152 68.665 62.0745C68.5507 62.1336 68.4188 62.1373 68.3702 62.083C68.3446 62.0544 68.3 62.0075 68.2403 61.9457C67.8114 61.502 66.5791 60.2392 65.7368 58.7467C65.6658 58.6206 65.6005 58.5082 65.538 58.4012C65.2686 57.9407 64.8009 57.6919 64.4114 56.7676C62.7813 52.9096 61.4009 48.8592 58.8925 45.4555C58.1699 44.476 57.5177 43.4641 56.8619 42.4473C56.3214 41.5982 55.4666 39.9405 55.2288 39.5731C55.1922 39.5152 55.2489 39.4071 55.3554 39.3316C55.4618 39.2562 55.5778 39.2423 55.6146 39.3005C55.8523 39.6675 56.7103 41.3289 57.2519 42.1795C57.9103 43.1999 58.5645 44.2154 59.2891 45.1982C61.808 48.616 63.72 52.4464 65.371 56.3526C65.7609 57.2775 65.6949 57.7384 65.9638 58.1982C66.0267 58.3059 66.0929 58.4193 66.1648 58.5471C66.9981 60.0247 68.214 61.2737 68.6489 61.7251C68.7104 61.7886 68.7569 61.8375 68.7842 61.868ZM69.6943 64.9781C69.9823 65.701 70.2724 66.7691 70.5101 67.6996C70.6281 68.1586 70.7331 68.5818 70.8246 68.9161C70.9684 69.441 70.9581 69.8012 70.9459 70.1541C70.9458 70.1579 70.9458 70.1617 70.9457 70.1655C70.9321 70.5144 70.9243 70.8787 71.0572 71.4064C71.1901 71.9348 71.4716 72.6577 71.7444 73.3818C71.7446 73.3824 71.7447 73.383 71.7449 73.3836C72.0172 74.1051 72.5173 74.786 72.6335 75.3351C73.0401 77.2578 72.9702 78.5257 72.8435 79.1645C72.6241 80.3009 73.3389 81.3926 72.9591 82.554C72.8548 82.6892 72.4686 82.5552 72.5343 82.3241C72.5359 82.3159 72.5374 82.3076 72.539 82.2994C72.5532 82.2211 72.5638 82.1526 72.5655 82.0578C72.5568 81.9223 72.5402 81.8223 72.5247 81.7307C72.489 81.4961 72.2638 79.8465 72.3813 79.2106C72.501 78.604 72.0209 77.4934 71.6169 75.5796C71.5045 75.0472 71.5656 74.2443 71.2926 73.5209C71.2919 73.5189 71.2911 73.5169 71.2904 73.5149C71.0204 72.7987 70.7373 72.0725 70.6026 71.537C70.4655 70.9921 70.4746 70.6137 70.4885 70.261C70.4887 70.2575 70.4889 70.254 70.4891 70.2506C70.5013 69.9019 70.5112 69.5594 70.3734 69.0559C70.2803 68.7155 70.1737 68.2892 70.0555 67.829C69.82 66.9062 69.5358 65.8565 69.2514 65.1427C69.2258 65.0781 69.3041 64.9886 69.4264 64.943C69.5486 64.8974 69.6685 64.9132 69.6943 64.9781ZM72.4829 64.0328C73.7069 65.9734 74.2502 68.1859 74.3221 70.4513C74.4609 71.0004 74.6434 71.7911 74.8128 72.5723C74.8146 72.5813 74.8164 72.5902 74.8182 72.5992C74.9865 73.3735 75.1457 74.1503 75.2623 74.6999C75.68 76.6684 75.8524 77.9259 75.7295 78.5834C75.6158 79.2093 75.6455 79.3688 75.6901 79.6035C75.6912 79.6099 75.6923 79.6163 75.6933 79.6227C75.6938 79.6231 75.6942 79.6234 75.6947 79.6238C75.7022 79.6306 75.707 79.6367 75.7091 79.6399C75.7135 79.6464 75.7158 79.6519 75.7166 79.654C75.7186 79.6588 75.7195 79.6629 75.7198 79.6644C75.7214 79.6704 75.7226 79.6774 75.7233 79.6819C75.7293 79.7249 75.7398 79.8539 75.7415 79.9663C75.7427 80.079 75.7321 80.161 75.7196 80.2475C75.7183 80.2563 75.717 80.265 75.7157 80.2738C75.7042 80.3516 75.6916 80.4362 75.6829 80.5553C75.6775 80.6278 75.5688 80.6983 75.4401 80.7132C75.3116 80.728 75.2119 80.6819 75.2173 80.6097C75.2266 80.4849 75.2399 80.3953 75.2515 80.3174C75.2528 80.3087 75.2541 80.3 75.2555 80.2914C75.2675 80.2089 75.2761 80.1368 75.2752 80.0372C75.2628 79.8947 75.2449 79.7979 75.2274 79.7049C75.1818 79.4638 75.1477 79.2782 75.2676 78.628C75.3841 78.0058 75.222 76.7867 74.8038 74.8135C74.6875 74.2652 74.5289 73.4907 74.3615 72.7201C74.3595 72.711 74.3575 72.7019 74.3554 72.6928C74.1868 71.9142 74.0059 71.1275 73.8681 70.5819C73.322 68.4228 72.4429 66.4223 72.0401 64.1978C71.8868 63.8102 71.7578 63.4649 71.6343 63.1373C71.2703 62.1722 70.984 61.4448 70.4501 60.8444C70.3332 60.7138 70.1318 60.3323 69.8432 59.7753C69.7585 59.6119 69.6675 59.4359 69.5674 59.2438C69.3224 58.774 69.0273 58.2139 68.6828 57.597C68.6104 57.4673 68.5438 57.3517 68.4801 57.2415C68.2056 56.7682 67.9938 56.4045 67.5926 55.4518C67.1054 54.2862 66.3166 52.3044 65.8955 51.2445C65.6855 50.7106 65.5793 50.4049 65.5085 50.1852C65.4888 50.124 65.4722 50.0699 65.4566 50.0203C65.4159 49.8909 65.3839 49.7904 65.3322 49.6635C64.9583 48.7499 64.5912 48.1635 63.955 47.2263C63.9151 47.1676 63.9736 47.0658 64.0856 46.999C64.1976 46.9322 64.3212 46.9257 64.3613 46.9846C65.0012 47.9276 65.3755 48.5258 65.7565 49.4558C65.8107 49.5888 65.845 49.697 65.8866 49.8292C65.9021 49.8783 65.9184 49.9307 65.9372 49.9889C66.0072 50.2058 66.1128 50.5097 66.3228 51.043C66.7453 52.1054 67.5369 54.0925 68.0246 55.2591C68.4236 56.2064 68.6313 56.5644 68.9058 57.0381C68.9699 57.149 69.0373 57.2655 69.1106 57.3969C69.4568 58.0174 69.7539 58.5808 69.9999 59.0529C70.1002 59.2455 70.1916 59.4221 70.276 59.5851C70.5714 60.1556 70.7626 60.5149 70.863 60.6273C71.4168 61.2505 71.7167 62.0136 72.085 62.9912C72.2074 63.3165 72.3339 63.6562 72.4829 64.0328ZM62.0384 43.6354C62.0804 43.693 62.0253 43.7972 61.9158 43.8681C61.8063 43.9389 61.6836 43.9499 61.6418 43.8927C61.4206 43.5905 61.257 43.3764 61.1288 43.2096C60.8914 42.9008 60.7755 42.7526 60.6308 42.5123C60.2568 41.892 59.8849 41.3009 59.5438 40.7716C58.9774 39.8921 58.4982 39.1855 58.261 38.8C58.2239 38.7396 58.2809 38.6306 58.3884 38.5566C58.4958 38.4828 58.6132 38.4722 58.6507 38.5329C58.8876 38.9178 59.3657 39.6232 59.9333 40.504C60.2767 41.0369 60.6526 41.6326 61.0309 42.2601C61.172 42.4942 61.2815 42.6352 61.5149 42.9386C61.6436 43.1062 61.8102 43.3235 62.0384 43.6354ZM52.5237 38.6308C52.2868 38.9623 52.1291 39.4592 51.8423 39.7536C51.8383 39.7578 51.8342 39.7619 51.8302 39.766C51.713 39.8863 51.5814 40.0012 51.4223 40.1401C51.402 40.1578 51.3811 40.1759 51.3599 40.1944C51.1715 40.3593 50.9417 40.5629 50.6464 40.8517C49.6548 41.8215 49.256 42.8311 49.132 43.1452C48.8834 43.7752 48.5037 44.374 47.9855 45.191C47.9381 45.2657 47.8891 45.342 47.8394 45.4206C47.7992 45.4842 47.6769 45.4801 47.5661 45.4112C47.4552 45.3423 47.3979 45.2349 47.4382 45.1712C47.4868 45.0943 47.5343 45.0193 47.5806 44.9463C47.5808 44.946 47.581 44.9456 47.5812 44.9453C48.1026 44.1231 48.4739 43.5373 48.7167 42.9222C48.8434 42.6012 49.2524 41.5671 50.2685 40.5734C50.567 40.2815 50.7988 40.0752 50.9884 39.9094C51.0091 39.8912 51.0295 39.8736 51.0492 39.8564C51.0497 39.856 51.0502 39.8556 51.0507 39.8552C51.2108 39.7154 51.3371 39.6055 51.4492 39.4904C51.4515 39.4879 51.4538 39.4853 51.4561 39.4828C51.7461 39.1851 51.8974 38.6955 52.1272 38.374C52.1711 38.3127 52.2956 38.3205 52.4051 38.3914C52.5145 38.4623 52.5674 38.5694 52.5237 38.6308ZM39.0299 62.6106C38.9641 63.0348 38.6665 63.4647 38.3529 63.8119C38.0372 64.1616 37.6931 64.4406 37.5143 64.5612C37.3395 64.679 37.2008 64.8455 37.0486 65.0526C37.0137 65.1001 36.9781 65.1497 36.9412 65.201C36.8195 65.3706 36.6839 65.5591 36.5154 65.7534C35.8961 66.4672 35.5628 66.9777 35.3388 67.3511C35.2927 67.4279 35.2508 67.5 35.2115 67.5675C35.2114 67.5676 35.2114 67.5677 35.2113 67.5678C35.063 67.8223 34.9523 68.0122 34.7981 68.1533C34.5238 68.4045 34.2941 68.6061 33.9635 68.8152C33.5076 69.1035 33.1555 69.7044 33.0441 70.1707C33.038 70.1963 33.032 70.2226 33.0257 70.2491C32.9455 70.5875 32.8467 71.0041 32.6088 71.5714C32.4111 72.0428 32.1689 72.4088 31.9389 72.7228C31.8729 72.8128 31.8083 72.8976 31.7466 72.9792C31.5908 73.1851 31.4512 73.3693 31.3433 73.5579C30.6738 74.7274 30.1837 75.3352 29.8126 75.677C29.5271 75.9398 29.307 76.0478 29.1481 76.1256C29.1001 76.1492 29.0574 76.1697 29.0205 76.1912C28.6912 76.3828 28.4577 76.6027 28.1768 76.8672C28.1145 76.9259 28.0495 76.9869 27.9809 77.0502C27.7516 77.2618 27.6419 77.4588 27.5751 77.6254C27.5458 77.6983 27.5245 77.7652 27.5046 77.8285C27.5043 77.8297 27.504 77.8309 27.5037 77.8322C27.5009 77.841 27.498 77.8496 27.4953 77.8583C27.4932 77.8649 27.4915 77.8717 27.4895 77.8782C27.49 77.8817 27.4901 77.8845 27.4903 77.8867C27.4904 77.8884 27.4905 77.8897 27.4905 77.8906C27.4906 77.8908 27.4907 77.891 27.4908 77.8912C27.4917 77.9067 27.4889 77.9177 27.4883 77.92C27.4873 77.924 27.486 77.9272 27.4854 77.9289C27.4822 77.9379 27.4768 77.9486 27.4731 77.9556C27.4636 77.9737 27.4461 78.0047 27.4184 78.052C27.3984 78.0959 27.3836 78.1407 27.3651 78.1969C27.364 78.2005 27.3629 78.2041 27.3618 78.2076C27.3438 78.2625 27.3225 78.3265 27.2919 78.4044C27.2641 78.4752 27.1488 78.483 27.0341 78.4216C26.9195 78.3601 26.8491 78.2529 26.8769 78.182C26.9057 78.1086 26.9254 78.0485 26.9434 77.9936C26.9445 77.9901 26.9456 77.9866 26.9467 77.9831C26.9654 77.9259 26.9833 77.8718 27.0085 77.8172C27.017 77.7989 27.0262 77.7805 27.0353 77.7635C27.049 77.7312 27.0617 77.6927 27.0763 77.6463C27.0793 77.637 27.0826 77.6275 27.0857 77.6176C27.1055 77.5544 27.1285 77.4808 27.1603 77.4015C27.2347 77.2159 27.3571 76.9986 27.6067 76.7683C27.6721 76.7079 27.7348 76.6489 27.796 76.5912C28.0779 76.3256 28.3284 76.0891 28.6779 75.8857C28.7259 75.8578 28.7758 75.8335 28.8289 75.8074C28.9864 75.7301 29.1745 75.6379 29.4384 75.3949C29.7919 75.0694 30.2725 74.4773 30.9382 73.3145C31.0515 73.1166 31.2005 72.9201 31.3589 72.7107C31.4194 72.6308 31.481 72.5485 31.5429 72.464C31.7694 72.1549 32.004 71.8004 32.1948 71.3452C32.4274 70.7906 32.5237 70.3855 32.6036 70.0486C32.6063 70.0369 32.6089 70.0252 32.6116 70.0135C32.615 69.999 32.6184 69.9847 32.6218 69.9705C32.7405 69.4736 33.1114 68.8319 33.6151 68.5134C33.9312 68.3135 34.1513 68.1208 34.4242 67.8709C34.5584 67.7481 34.6531 67.5856 34.7986 67.3363C34.8394 67.2663 34.8847 67.1896 34.9355 67.1049C35.1636 66.7248 35.5017 66.2064 36.1279 65.4846C36.2912 65.2965 36.4208 65.1161 36.5419 64.9475C36.5795 64.8952 36.6165 64.8439 36.6533 64.7939C36.8062 64.5859 36.9585 64.3985 37.1606 64.2623C37.3267 64.1504 37.6606 63.8808 37.9677 63.5408C38.2769 63.1983 38.5469 62.7973 38.6048 62.4245C38.6108 62.3857 38.6172 62.3468 38.6234 62.3078C38.677 61.9724 38.7316 61.6303 38.6756 61.291C38.0753 59.5467 39.6574 58.0944 40.4686 56.9877C40.4792 56.9732 40.4899 56.9586 40.5006 56.9441C41.4368 55.6667 42.0449 54.692 42.2521 54.3598C42.2618 54.3443 42.2705 54.3302 42.2785 54.3175C42.2855 54.3062 42.2917 54.2959 42.2974 54.2869C42.3823 54.1518 42.4442 54.0239 42.5091 53.8899C42.5126 53.8826 42.5161 53.8752 42.5197 53.8679C42.5883 53.7263 42.6614 53.5784 42.7672 53.416C43.1604 52.812 43.4588 52.3054 43.7135 51.8648C43.7607 51.7833 43.8067 51.7041 43.8513 51.6267C43.8514 51.6265 43.8516 51.6262 43.8517 51.626C44.0472 51.2863 44.2204 50.9848 44.3979 50.707C44.7215 50.2005 44.9151 49.8424 45.0581 49.559C45.103 49.4701 45.1434 49.3877 45.1815 49.3098C45.2639 49.1414 45.3357 48.9943 45.4206 48.8494C45.5802 48.577 45.7093 48.3149 45.8368 48.0569C45.8482 48.0339 45.8597 48.0111 45.8711 47.9882C46.0095 47.7087 46.1483 47.433 46.3225 47.1591C46.3629 47.0955 46.486 47.1 46.5968 47.169C46.7075 47.238 46.7644 47.3455 46.724 47.4091C46.5549 47.6751 46.4191 47.9438 46.2808 48.2233C46.2694 48.2464 46.2581 48.2697 46.2467 48.2929C46.1195 48.5502 45.9874 48.8167 45.8248 49.0942C45.743 49.2338 45.6751 49.3727 45.5944 49.5378C45.5558 49.6166 45.5144 49.7014 45.4672 49.7951C45.322 50.0828 45.1261 50.4458 44.7994 50.9572C44.624 51.2316 44.4527 51.5291 44.2573 51.8686C44.2125 51.9465 44.1664 52.0266 44.1187 52.1092C43.8634 52.5509 43.5633 53.06 43.1679 53.6673C43.0679 53.8208 42.9984 53.9609 42.9301 54.1019C42.9262 54.1097 42.9223 54.1176 42.9184 54.1255C42.8541 54.2584 42.789 54.3936 42.6993 54.5362C42.6874 54.5553 42.6719 54.5795 42.6536 54.6088C42.446 54.9416 41.8357 55.9203 40.8961 57.2024C40.8931 57.2064 40.8902 57.2103 40.8872 57.2142C40.2576 58.0733 39.9024 58.558 39.7575 59.0013C39.6432 59.3512 39.5195 59.5882 39.4112 59.7785C39.3906 59.8147 39.3711 59.8491 39.3522 59.8816C39.2706 60.0223 39.2062 60.1335 39.1646 60.2592C39.039 60.6396 39.0258 60.9616 39.0996 61.4086C39.1621 61.7875 39.1017 62.164 39.0486 62.4938C39.0485 62.4943 39.0485 62.4948 39.0484 62.4953C39.0421 62.5344 39.0358 62.5728 39.0299 62.6106ZM26.9739 79.4845C26.93 79.5458 26.8059 79.5382 26.6965 79.4674C26.587 79.3965 26.5336 79.289 26.5774 79.2277C26.682 79.0814 26.7865 78.9353 26.8911 78.7891C26.9349 78.7278 27.059 78.7353 27.1685 78.8061C27.2779 78.8771 27.3313 78.9845 27.2875 79.0459C27.183 79.1921 27.0784 79.3383 26.9739 79.4845ZM41.1803 63.6127C41.1629 63.6889 41.0539 63.706 40.9372 63.6512C40.8206 63.5964 40.7403 63.4903 40.7576 63.4142C40.7667 63.3739 40.7798 63.3065 40.7974 63.2157C40.9237 62.562 41.2842 60.6953 42.1207 59.0068C42.1911 58.8646 42.2529 58.7363 42.3116 58.6141C42.563 58.0912 42.5293 57.5208 43.1343 56.6001C45.6782 52.7287 48.6772 49.1526 50.822 45.0348C51.4414 43.8455 52.1438 42.7142 52.8706 41.5924C53.4764 40.6573 54.7808 39.0674 55.0606 38.6759C55.1045 38.6146 55.229 38.6224 55.3385 38.6933C55.448 38.7643 55.5009 38.8714 55.4571 38.9328C55.1793 39.3215 53.8789 40.9059 53.2753 41.8374C52.5499 42.9571 51.8487 44.0859 51.2305 45.2729C49.0832 49.3955 46.5587 53.2926 44.0118 57.1685C43.4127 58.0803 42.9726 58.3259 42.7221 58.8469C42.6632 58.9694 42.6013 59.0986 42.5302 59.2421C41.7055 60.9069 41.3498 62.7448 41.2217 63.4062C41.2036 63.4999 41.1899 63.5702 41.1803 63.6127ZM39.1261 66.4583C38.7031 67.1862 38.0053 68.1593 37.3951 69.0094C37.0976 69.4241 36.8206 69.8093 36.607 70.1229C36.2762 70.6088 35.9816 70.8596 35.6893 71.1081C35.6862 71.1108 35.6831 71.1135 35.68 71.1162C35.388 71.3646 35.0973 71.6143 34.7611 72.1077C34.4222 72.6052 34.0384 73.3481 33.6512 74.0974C33.6509 74.0979 33.6505 74.0985 33.6502 74.099C33.2651 74.8444 33.0759 75.7292 32.7307 76.2353C31.5276 77.9988 30.5452 78.9323 29.972 79.3555C28.9695 80.0957 28.6796 81.4771 27.5641 82.1748C27.3882 82.218 27.2045 81.838 27.4219 81.6901C27.429 81.6843 27.4362 81.6785 27.4433 81.6728C27.511 81.6173 27.5687 81.5679 27.6389 81.4912C27.7312 81.374 27.7916 81.2815 27.8465 81.197C27.9906 80.9752 29.0522 79.4744 29.6119 79.0612C30.1558 78.6596 30.6423 77.4416 31.8531 75.6669C32.192 75.1702 32.8555 74.6088 33.2426 73.8595C33.2437 73.8574 33.2448 73.8554 33.2459 73.8533C33.6302 73.1095 34.0176 72.3593 34.3622 71.8535C34.7106 71.3423 35.0149 71.0815 35.3108 70.8298C35.3137 70.8274 35.3166 70.825 35.3195 70.8226C35.6091 70.5763 35.89 70.3371 36.2086 69.8691C36.4269 69.5485 36.7065 69.1584 37.006 68.7412C37.6135 67.8947 38.3023 66.9356 38.7217 66.2139C38.7596 66.1488 38.881 66.1508 38.9927 66.2183C39.1043 66.2858 39.1639 66.3932 39.1261 66.4583ZM41.5974 68.0592C40.7654 70.3327 39.361 72.2557 37.6392 73.9211C37.2966 74.4241 36.8083 75.1194 36.3204 75.8137C36.3148 75.8214 36.3091 75.8292 36.3035 75.837C35.8208 76.5237 35.3404 77.2074 35.0024 77.7028C33.7993 79.4663 33.0159 80.5329 32.4428 80.9561C31.9084 81.3507 31.815 81.4954 31.6761 81.7096C31.6722 81.7153 31.6683 81.7211 31.6644 81.7268C31.6644 81.7274 31.6645 81.728 31.6646 81.7286C31.665 81.7393 31.664 81.7473 31.6632 81.7513C31.6616 81.7595 31.6592 81.7654 31.6583 81.7676C31.6562 81.7727 31.6539 81.7766 31.6531 81.778C31.6498 81.7838 31.6456 81.7901 31.6428 81.7941C31.6163 81.8311 31.5275 81.9434 31.4504 82.0279C31.3713 82.1146 31.3052 82.1702 31.2346 82.2281C31.2274 82.2339 31.2202 82.2398 31.213 82.2456C31.1492 82.2978 31.0797 82.3545 30.9881 82.4416C30.9322 82.4946 30.8028 82.4749 30.6989 82.3976C30.5951 82.3202 30.5562 82.2146 30.612 82.1616C30.7084 82.07 30.7823 82.0096 30.8464 81.9572C30.8535 81.9514 30.8607 81.9456 30.8679 81.9398C30.9355 81.8844 30.9933 81.8348 31.0636 81.7581C31.1558 81.641 31.2161 81.5486 31.271 81.464C31.415 81.2424 31.5234 81.0755 32.0831 80.6623C32.627 80.2607 33.3931 79.2238 34.604 77.4489C34.9426 76.9527 35.4236 76.2681 35.9058 75.582C35.9114 75.5739 35.9171 75.5658 35.9227 75.5577C36.4109 74.8631 36.899 74.1691 37.2408 73.6673C38.5733 71.7115 39.6221 69.6323 41.1929 67.815C41.4129 67.4365 41.6221 67.0957 41.816 66.78C42.3868 65.851 42.8245 65.1379 43.0124 64.3113C43.0536 64.1301 43.2555 63.7152 43.5562 63.1214C43.6444 62.9474 43.7419 62.757 43.847 62.5511C44.1047 62.0463 44.4101 61.4483 44.7463 60.7696C44.8168 60.6274 44.8785 60.4991 44.9373 60.3768C45.1887 59.8539 45.3868 59.441 45.9918 58.5202C46.7363 57.3874 48.0587 55.5372 48.789 54.5625C49.1547 54.0743 49.375 53.8076 49.5352 53.6216C49.5798 53.5699 49.6197 53.5248 49.6561 53.4833C49.7513 53.3748 49.8249 53.2905 49.9126 53.1742C50.5433 52.337 50.8909 51.6907 51.4397 50.6187C51.4741 50.5515 51.5936 50.5502 51.7064 50.6156C51.8192 50.6811 51.883 50.7887 51.8487 50.8559C51.2991 51.9296 50.9463 52.5858 50.3069 53.4344C50.2155 53.5558 50.1363 53.6459 50.0395 53.7563C50.0037 53.7972 49.9652 53.8408 49.9229 53.8899C49.7654 54.0728 49.5474 54.3367 49.1836 54.8223C48.4546 55.7953 47.1342 57.6428 46.3921 58.7722C45.793 59.684 45.5983 60.0887 45.3478 60.6097C45.2889 60.7322 45.2271 60.8612 45.156 61.0047C44.8193 61.6844 44.5133 62.2841 44.2554 62.7891C44.1505 62.9948 44.0533 63.1848 43.9656 63.3581C43.6587 63.9639 43.4703 64.3547 43.4351 64.5099C43.2406 65.3654 42.7836 66.1094 42.2074 67.0469C42.0156 67.3591 41.8104 67.6928 41.5974 68.0592ZM53.8561 47.0357C53.8212 47.1026 53.7014 47.1033 53.5887 47.0376C53.476 46.9718 53.4129 46.8643 53.4478 46.7974C53.6319 46.4439 53.7611 46.1878 53.862 45.9875C54.0487 45.6168 54.1389 45.4375 54.3029 45.1877C54.7265 44.5427 55.1318 43.9176 55.4963 43.3551C56.1021 42.4201 56.5957 41.658 56.8755 41.2666C56.9194 41.2052 57.0439 41.213 57.1534 41.2839C57.2627 41.3549 57.3158 41.462 57.272 41.5234C56.9942 41.9121 56.504 42.6683 55.9005 43.5998C55.5356 44.163 55.1295 44.7905 54.7033 45.4395C54.5442 45.6818 54.4588 45.8509 54.2762 46.2134C54.1754 46.4135 54.0452 46.6727 53.8561 47.0357Z" fill="white"/>
<path d="M28.9053 11.2109C29.0809 10.6713 29.8086 10.6377 30.0527 11.1104L30.0947 11.2109L31.5469 15.6826H36.248C36.8535 15.6826 37.1051 16.4576 36.6152 16.8135L32.8125 19.5752L34.2646 24.0469C34.4517 24.6226 33.7935 25.1015 33.3037 24.7461L29.5 21.9824L25.6963 24.7461C25.2065 25.1015 24.5483 24.6226 24.7354 24.0469L26.1865 19.5752L22.3848 16.8135C21.8949 16.4576 22.1465 15.6826 22.752 15.6826H27.4531L28.9053 11.2109Z" fill="#9F1D20" stroke="white"/>
</svg>
